<svg id="FlatMe" xmlns="http://www.w3.org/2000/svg" viewBox="0 0 174.07 174.07"><defs><style>.cls-1{fill:#ead6a4;}.cls-2{opacity:0.25;}.cls-3{fill:#231b09;}.cls-4{fill:#f7f9f9;}.cls-5{fill:#fff;}.cls-14,.cls-6,.cls-7,.cls-8{fill:none;}.cls-6{stroke:#3f2e15;stroke-width:1.69px;}.cls-6,.cls-9{stroke-linecap:round;}.cls-14,.cls-6,.cls-7,.cls-8,.cls-9{stroke-miterlimit:10;}.cls-7,.cls-8{stroke:#000;}.cls-7{stroke-width:2.01px;}.cls-8{stroke-width:2px;}.cls-9{stroke:#fff;stroke-width:1.12px;}.cls-10{fill:#3f2e15;}.cls-11{fill:#575757;}.cls-12{fill:#d7d6d6;}.cls-13{fill:#3490ce;}.cls-14{stroke:#2c3e50;stroke-width:11.93px;}</style></defs><title>myLogoSuit</title><path class="cls-1" d="M475.33,166.95a30,30,0,0,1-9.44,1.65c-3.7,0-7.2-1.6-10.32-1.6h-0.24c0,15-11.06,29.49-11.06,29.49s4.19,4.16,21.12,4.16,21.25-4.43,21.25-4.43S475.61,182.26,475.33,166.95Z" transform="translate(-379.1 -64.89)"/><path class="cls-2" d="M476.8,177.05a28.27,28.27,0,0,1-1.47-8.15,34.88,34.88,0,0,1-9.44,1.43c-3.7,0-7.2-1.33-10.32-1.33h-0.24a30.47,30.47,0,0,1-1.2,7.6A25.56,25.56,0,0,0,476.8,177.05Z" transform="translate(-379.1 -64.89)"/><path class="cls-1" d="M71.09,49H103a6.53,6.53,0,0,1,6.53,6.53V86.13A22.47,22.47,0,0,1,87,108.61h0A22.47,22.47,0,0,1,64.56,86.13V55.52A6.53,6.53,0,0,1,71.09,49Z"/><circle class="cls-3" cx="80.11" cy="66.37" r="2.63"/><circle class="cls-4" cx="79.15" cy="65.28" r="0.89"/><circle class="cls-3" cx="94.67" cy="66.57" r="2.63"/><circle class="cls-4" cx="93.71" cy="65.68" r="0.89"/><path class="cls-5" d="M458.74,154.26s13,0.39,13.67-2.33c0,0-.21,5.54-1.67,6.51s-7.86,0-7.86,0S458.33,156.39,458.74,154.26Z" transform="translate(-379.1 -64.89)"/><path class="cls-1" d="M488.45,135.17s1.1,2.88,3,1.67,3.19-13.32-.73-11.59c-2.82,1.24-2.67,2.27-2.79,2.15" transform="translate(-379.1 -64.89)"/><path class="cls-1" d="M444.14,134.66s-1,2.93-3,1.82-3.82-13.15.18-11.61c2.88,1.11,2.78,2.14,2.89,2" transform="translate(-379.1 -64.89)"/><path class="cls-6" d="M468.71,127.79c0-1.82,2.23-3.3,5-3.3s5,1.48,5,3.3" transform="translate(-379.1 -64.89)"/><path class="cls-6" d="M454.22,127.79c0-1.82,2.23-3.3,5-3.3s5,1.48,5,3.3" transform="translate(-379.1 -64.89)"/><path class="cls-7" d="M68.29,61.88h14.3a2.61,2.61,0,0,1,2.61,2.61v0A10.12,10.12,0,0,1,75.07,74.61H73.76a6.87,6.87,0,0,1-6.87-6.87V63.27A1.4,1.4,0,0,1,68.29,61.88Z"/><path class="cls-7" d="M475.6,126.77h1.31A10.12,10.12,0,0,1,487,136.89v0a2.61,2.61,0,0,1-2.61,2.61h-14.3a1.4,1.4,0,0,1-1.4-1.4v-4.47a6.87,6.87,0,0,1,6.87-6.87Z" transform="translate(576.66 201.38) rotate(180)"/><path class="cls-8" d="M465,128h3v2.28s-2.08-1.72-3.6-.19" transform="translate(-379.1 -64.89)"/><path class="cls-9" d="M489.86,125.88" transform="translate(-379.1 -64.89)"/><g id="Workspace_Limitation" data-name="Workspace Limitation"><path class="cls-2" d="M489.49,109.07s2.61,5.32-.48,19.46c0,0-5.38-11.8-6.17-12,0,0-4.57,1.79-2.29-1.19,0,0-8.15,5.17-5.86,2.19,0,0-13.42,2.88-9.74.1l-5.33,1.66s-1.58-4.36-2.63-3.06a4.84,4.84,0,0,0-5.23,2.41s-2.41.28-4.64,4.18l-3,5.72s-2.89-16.28-2-18.06" transform="translate(-379.1 -64.89)"/><path class="cls-10" d="M444.06,127.34s-2.89-16.28-2-18.06,8.22-9.6,5.91-3.29c0,0,8.16-7.83,8.59-2.07,0,0,1-12.43,5.72-1.91,0.55,1.22,1.16,2.76,1.81,4.66,0,0-4.18-8.43-.5-6.84,0,0,4.37-4.17,3.68-.8,0,0,3.12-3.58,5.09,0,0,0-1.87-4.55,4.48.48,0.54,0.43,1.15.93,1.82,1.51,0,0-2.44-7.46.45-3.88,0,0,9.64.7,2.68,5,0,0,2.19-4.37,3.48,2.78,0,0,3.14-6.6,3.14,8.55,0,0-1-9.14,1.13-5.57,0,0,2.61,5.32-.48,19.46,0,0-5.38-11.8-6.17-12,0,0-4.57,1.79-2.29-1.19,0,0-8.15,5.17-5.86,2.19,0,0-13.42,2.88-9.74.1l-5.33,1.66S458,113.73,457,115a4.84,4.84,0,0,0-5.23,2.41s-2.41.28-4.64,4.18Z" transform="translate(-379.1 -64.89)"/></g><path class="cls-11" d="M466.18,182.59h-1.24a245.68,245.68,0,0,0-72,11c23.33,43.23,72,40,72,40l0.62,0.06,0.62-.06s48.68,3.27,72-40A245.68,245.68,0,0,0,466.18,182.59Z" transform="translate(-379.1 -64.89)"/><path class="cls-12" d="M474,233.57l1-.22,13-49.85c-8.23-.59-16.68-1-22.38-1.06s-15.75.47-24,1.06l14.59,49.79A98.94,98.94,0,0,0,474,233.57Z" transform="translate(-379.1 -64.89)"/><path class="cls-13" d="M459.77,233.59a98.62,98.62,0,0,0,11.49.14l0.11,0-1.91-31.47,2.92-5.32-4.49-5.07h-4.64l-4.49,5.07,2.92,5.32Z" transform="translate(-379.1 -64.89)"/><polygon class="cls-5" points="62.49 118.6 68.63 112.01 84.14 126.96 70.92 138.36 62.49 118.6"/><polygon class="cls-5" points="108.84 118.6 102.7 112.01 88.78 126.96 100.41 138.36 108.84 118.6"/><circle class="cls-14" cx="87.03" cy="87.03" r="81.07"/><path class="cls-1" d="M453.55,182.62l9.69,9.38h4.48l9.08-9.8S459.15,177,453.55,182.62Z" transform="translate(-379.1 -64.89)"/></svg>