<svg id="Layer_1" xmlns="http://www.w3.org/2000/svg" viewBox="0 0 300 300"><style>.st0{fill:#FFF;stroke:#000;stroke-miterlimit:10}</style><g id="XMLID_1_"><path id="XMLID_4_" class="st0" d="M78 122.4c40.6 0 73.6 47.7 73.6 47.7s-32.9 47.7-73.6 47.7-73.5-47.7-73.5-47.7 32.9-47.7 73.5-47.7z"/><path id="XMLID_2_" class="st0" d="M133.3 84.3c28.7 28.7 18.3 85.8 18.3 85.8s-57 10.4-85.8-18.3S47.6 66 47.6 66s57-10.4 85.7 18.3z"/><path id="XMLID_3_" class="st0" d="M199.3 96.5c0 40.6-47.7 73.6-47.7 73.6s-47.7-32.9-47.7-73.6 47.7-73.6 47.7-73.6 47.7 33 47.7 73.6z"/><path id="XMLID_5_" class="st0" d="M169.9 84.3C198.7 55.6 255.7 66 255.7 66s10.4 57-18.3 85.8-85.8 18.3-85.8 18.3-10.4-57 18.3-85.8z"/><path id="XMLID_6_" class="st0" d="M225.2 122.4c40.6 0 73.6 47.7 73.6 47.7s-32.9 47.7-73.6 47.7-73.6-47.7-73.6-47.7 33-47.7 73.6-47.7z"/></g></svg>