<svg id="Layer_1" xmlns="http://www.w3.org/2000/svg" viewBox="-128 132 42.5 38"><style>.st0{fill:#FFF;stroke:#000;stroke-width:.25;stroke-miterlimit:10}</style><g id="XMLID_95_"><g id="XMLID_96_"><path id="XMLID_98_" class="st0" d="M-120 148.3c7.7 5.8 10.5 15.7 11.2 18.6.7-3.3 1-11.9-1.5-18.1-3.1-8.4-15.9-10.3-15.9-10.3s-3.7 14.5 1.2 21.6c3.9 5.7 13.3 8.4 16.1 8.8-1.2-9.7-11.1-20.6-11.1-20.6z"/><path id="XMLID_97_" class="st0" d="M-87.9 132.4s-12.5 4.5-19.8 13.2c-8.4 10.1-3.2 20.3-1.3 23.2.6-4.5 2.9-16.4 11.4-23.9 0 0-8.6 12.5-9.6 24.6 3.3-.6 13.3-2.8 18.2-10.2 6.1-8.8 1.1-26.9 1.1-26.9z"/></g></g></svg>