<?xml version="1.0" standalone="no"?>
<!DOCTYPE svg PUBLIC "-//W3C//DTD SVG 20010904//EN"
 "http://www.w3.org/TR/2001/REC-SVG-20010904/DTD/svg10.dtd">
<svg version="1.0" xmlns="http://www.w3.org/2000/svg"
 width="700.000000pt" height="700.000000pt" viewBox="0 0 700.000000 700.000000"
 preserveAspectRatio="xMidYMid meet">
<metadata>
Created by potrace 1.11, written by Peter Selinger 2001-2013
</metadata>
<g transform="translate(0.000000,700.000000) scale(0.100000,-0.100000)"
fill="#000000" stroke="none">
<path d="M3307 6987 c3 -5 12 -6 20 -3 8 3 11 2 8 -3 -7 -12 -45 -10 -45 2 0
4 -4 5 -10 2 -19 -11 -50 -14 -50 -4 0 6 -5 7 -10 4 -6 -4 -7 -12 -3 -18 4 -7
-6 -4 -21 7 -16 10 -25 13 -22 7 5 -7 -7 -11 -36 -12 -24 -1 -47 -1 -52 0 -5
1 -13 -4 -18 -11 -6 -10 -10 -10 -18 2 -6 10 -10 11 -10 3 0 -8 -13 -13 -31
-13 -19 0 -28 -4 -23 -11 5 -8 1 -8 -14 0 -12 6 -23 7 -26 3 -3 -4 -31 -8 -64
-8 -38 1 -58 -3 -55 -10 2 -6 -9 -10 -29 -9 -18 1 -44 -5 -57 -13 -13 -8 -21
-10 -18 -5 3 5 -4 10 -16 10 -15 2 -18 0 -8 -6 16 -10 3 -19 -23 -15 -11 1
-26 -5 -34 -14 -7 -9 -11 -12 -8 -6 3 7 -3 14 -14 17 -17 4 -18 2 -8 -16 l11
-22 -23 20 c-13 11 -20 14 -16 8 4 -7 2 -13 -4 -13 -6 0 -9 -4 -5 -9 3 -6 -6
-6 -25 -1 -24 7 -32 6 -37 -6 -3 -7 -9 -14 -15 -14 -5 0 -6 5 -3 11 5 7 1 7
-14 0 -12 -6 -30 -16 -41 -21 -12 -6 -25 -8 -30 -5 -6 4 -10 2 -10 -2 0 -8
-18 -13 -62 -16 -11 -1 -14 -5 -8 -12 6 -7 0 -11 -17 -13 -15 -1 -30 -7 -34
-13 -4 -8 -8 -7 -12 2 -4 10 -6 10 -6 2 -1 -7 -9 -13 -18 -13 -9 0 -26 -8 -37
-17 -20 -17 -20 -17 -7 0 12 15 12 17 -3 11 -9 -3 -16 -10 -16 -16 0 -5 -4 -7
-9 -4 -12 8 -33 -19 -23 -29 4 -5 1 -5 -6 -1 -7 4 -10 12 -6 17 3 6 -3 5 -15
-3 -12 -7 -21 -17 -21 -23 0 -5 -5 -3 -10 5 -7 11 -10 11 -10 2 0 -11 -51 -37
-70 -35 -3 0 -11 -7 -18 -16 -10 -12 -12 -12 -6 -1 7 12 5 13 -8 3 -8 -7 -19
-9 -24 -5 -4 4 -2 -1 5 -11 12 -15 12 -17 -3 -11 -10 4 -16 1 -16 -7 0 -11 -2
-11 -10 1 -8 12 -10 12 -16 -3 -3 -9 -10 -14 -15 -11 -5 3 -9 0 -9 -6 0 -6 -4
-8 -10 -5 -5 3 -10 1 -10 -4 0 -6 -3 -10 -7 -10 -20 3 -34 -2 -28 -10 3 -6 -4
-8 -15 -6 -15 3 -24 -3 -30 -18 -5 -12 -9 -16 -9 -8 -1 9 -8 6 -21 -9 -11 -13
-20 -20 -20 -16 0 10 -44 -15 -53 -30 -4 -7 -15 -10 -24 -7 -10 4 -14 2 -10
-4 3 -5 -6 -16 -21 -24 -15 -8 -30 -18 -34 -24 -4 -5 -8 -6 -8 -2 0 5 -14 0
-30 -10 -17 -10 -28 -23 -26 -30 3 -7 -1 -10 -10 -6 -7 3 -14 0 -14 -7 0 -6
-5 -8 -10 -5 -5 3 -10 -1 -10 -10 0 -9 -4 -14 -10 -10 -5 3 -18 -3 -29 -14
-11 -11 -22 -17 -25 -14 -3 4 -6 1 -6 -6 0 -7 -5 -9 -12 -5 -7 4 -8 3 -4 -5 4
-6 0 -14 -8 -17 -9 -3 -13 -11 -9 -18 4 -6 -2 -4 -12 4 -11 9 -16 10 -11 3 4
-8 1 -13 -9 -13 -9 0 -13 -4 -10 -10 3 -6 -4 -10 -17 -10 -18 0 -20 -2 -8 -10
13 -8 12 -10 -3 -10 -12 0 -16 -4 -11 -12 6 -9 3 -9 -9 1 -15 12 -18 10 -27
-14 -6 -16 -14 -23 -22 -19 -8 5 -9 0 -5 -16 4 -16 3 -20 -5 -12 -8 8 -19 3
-39 -18 -16 -16 -29 -34 -29 -41 0 -7 -3 -10 -6 -6 -4 3 -14 -2 -23 -11 -10
-11 -12 -12 -6 -2 9 13 8 13 -8 1 -10 -8 -16 -20 -13 -28 4 -11 1 -11 -14 -3
-16 9 -18 8 -13 -5 4 -11 -1 -18 -17 -22 -16 -4 -18 -8 -8 -14 10 -7 9 -9 -5
-9 -22 0 -56 -30 -35 -31 7 0 3 -5 -10 -11 -13 -7 -21 -17 -18 -25 3 -8 1 -11
-4 -8 -5 3 -18 1 -27 -4 -11 -6 -13 -11 -5 -11 7 0 10 -5 7 -10 -4 -6 -10 -8
-15 -5 -4 3 -14 -8 -21 -24 -9 -19 -18 -27 -28 -23 -9 3 -13 2 -9 -3 4 -4 0
-14 -10 -22 -9 -8 -11 -11 -3 -7 9 5 12 3 7 -4 -4 -7 -13 -12 -21 -12 -8 0
-17 -5 -21 -12 -5 -7 -3 -8 6 -3 9 5 11 4 6 -3 -4 -7 -14 -12 -22 -12 -8 0
-13 -3 -12 -7 2 -5 -1 -9 -7 -11 -16 -5 -27 -31 -19 -44 4 -6 3 -8 -3 -5 -14
9 -44 -25 -46 -51 -1 -12 -6 -18 -14 -15 -8 3 -13 2 -12 -3 4 -21 -2 -35 -12
-29 -6 4 -13 -3 -16 -15 -3 -11 -11 -19 -18 -16 -8 3 -10 -4 -7 -21 3 -18 1
-24 -7 -19 -6 4 -11 1 -11 -7 0 -8 -10 -22 -23 -31 -12 -9 -16 -14 -8 -10 9 5
12 3 7 -4 -4 -7 -14 -12 -21 -12 -9 0 -12 -6 -8 -17 5 -11 3 -14 -6 -8 -10 6
-11 2 -6 -15 5 -15 3 -20 -3 -16 -6 3 -13 -3 -17 -14 -4 -11 -10 -18 -15 -15
-4 3 -6 -4 -3 -15 4 -16 2 -19 -11 -14 -12 4 -15 2 -10 -9 3 -8 0 -18 -5 -22
-6 -3 -9 -11 -6 -16 3 -5 -1 -6 -10 -3 -13 5 -15 1 -11 -20 3 -18 0 -26 -10
-26 -8 0 -13 -6 -12 -12 2 -7 -3 -12 -10 -10 -8 1 -11 -2 -8 -7 3 -5 -1 -12
-10 -15 -13 -5 -14 -9 -3 -22 10 -12 10 -15 -1 -12 -7 2 -17 -13 -24 -35 -6
-22 -13 -36 -16 -33 -3 3 -7 -4 -7 -16 -1 -12 -7 -26 -14 -32 -9 -8 -10 -7 -4
3 6 10 4 12 -4 7 -8 -5 -9 -12 -2 -19 10 -13 -11 -52 -22 -40 -4 3 -8 -3 -8
-15 -2 -38 -4 -43 -16 -50 -7 -4 -14 -18 -16 -30 -2 -12 -12 -29 -23 -38 -19
-15 -19 -16 1 -10 20 6 20 6 0 -9 -17 -14 -18 -17 -5 -25 12 -8 10 -10 -10
-10 -20 0 -22 -2 -10 -10 10 -6 11 -10 3 -10 -7 0 -13 -8 -13 -19 0 -10 -6
-24 -14 -30 -8 -7 -12 -21 -9 -32 4 -12 0 -25 -8 -30 -11 -7 -11 -9 -1 -9 7 0
10 -5 7 -10 -4 -6 -11 -7 -17 -4 -7 5 -9 0 -6 -14 4 -14 2 -20 -5 -15 -6 4 -8
0 -4 -10 3 -9 -1 -23 -9 -32 -9 -9 -13 -22 -10 -30 3 -8 -2 -21 -10 -30 -9 -8
-11 -15 -6 -15 12 0 10 -26 -3 -37 -4 -4 -5 -2 -1 5 4 6 2 12 -3 12 -15 0 -14
-13 2 -29 10 -11 9 -12 -1 -7 -9 6 -11 1 -8 -19 4 -19 1 -25 -8 -22 -7 3 -13
-1 -13 -9 0 -7 4 -11 9 -8 4 3 8 0 8 -5 0 -6 -8 -11 -17 -11 -15 0 -16 -2 -3
-10 13 -8 12 -10 -4 -10 -20 0 -20 0 0 -15 12 -9 14 -14 6 -15 -7 0 -11 -4 -8
-9 3 -5 0 -11 -7 -14 -7 -3 -14 -20 -15 -38 -4 -49 -7 -62 -16 -78 -7 -10 -5
-12 5 -6 9 5 8 1 -3 -11 -12 -14 -14 -24 -7 -37 6 -9 6 -17 2 -17 -5 0 -8 -15
-8 -32 1 -18 -5 -43 -12 -55 -12 -20 -11 -22 4 -17 17 5 17 5 1 -9 -19 -15
-25 -32 -8 -22 6 3 10 1 10 -4 0 -6 -6 -11 -14 -11 -9 0 -14 -9 -13 -20 1 -11
6 -20 12 -20 5 0 3 -5 -5 -10 -8 -5 -11 -10 -7 -10 4 0 3 -10 -4 -21 -8 -15
-8 -19 0 -15 6 4 11 2 11 -3 0 -6 -3 -11 -7 -11 -5 0 -8 -18 -8 -39 -1 -25 3
-37 10 -33 5 3 3 -5 -7 -19 -10 -16 -13 -31 -8 -39 9 -15 3 -33 -8 -26 -4 2
-8 -58 -9 -135 -2 -121 0 -140 15 -150 13 -8 13 -9 2 -6 -13 4 -16 -5 -16 -49
1 -49 6 -59 28 -55 4 0 5 -6 2 -13 -3 -8 -13 -12 -22 -10 -15 5 -16 4 -1 -8 9
-7 14 -19 11 -27 -3 -9 0 -11 9 -6 11 6 12 5 2 -6 -17 -17 -17 -32 0 -23 9 6
9 4 -1 -8 -10 -13 -10 -17 0 -21 10 -4 10 -6 1 -6 -7 -1 -13 -6 -13 -12 0 -5
3 -8 8 -6 4 3 7 -8 7 -24 0 -16 -4 -29 -9 -29 -5 0 -3 -7 4 -15 7 -9 10 -18 7
-22 -4 -3 -1 -13 6 -21 10 -13 9 -14 -2 -8 -9 6 -12 5 -9 -5 3 -8 14 -13 24
-12 10 1 13 0 7 -3 -7 -3 -13 -12 -13 -20 0 -9 5 -12 12 -8 7 5 8 3 2 -7 -12
-19 -14 -39 -4 -39 4 0 6 -17 5 -37 -1 -21 2 -46 6 -55 6 -11 4 -18 -4 -21 -7
-3 -4 -6 6 -6 15 -1 16 -4 6 -22 -8 -16 -8 -20 1 -14 7 4 11 1 9 -6 -6 -45 2
-79 19 -79 14 0 15 -2 2 -10 -8 -5 -10 -10 -3 -10 6 0 9 -9 6 -20 -3 -11 0
-20 6 -20 6 0 11 -5 11 -11 0 -5 -6 -7 -12 -4 -7 4 -2 -4 12 -16 16 -14 19
-20 8 -16 -12 4 -15 2 -11 -9 3 -7 9 -14 13 -14 4 0 6 -11 4 -25 -1 -14 4 -32
13 -40 8 -8 10 -15 4 -15 -6 0 -11 -5 -11 -11 0 -5 5 -7 12 -3 8 5 9 2 5 -9
-3 -9 -2 -19 4 -22 5 -4 7 -11 3 -16 -8 -14 16 -40 30 -32 6 4 5 -1 -3 -11
-12 -14 -12 -19 -2 -26 10 -5 10 -9 1 -15 -8 -5 -6 -11 6 -20 10 -7 19 -25 21
-41 2 -16 12 -35 21 -43 13 -10 14 -14 4 -18 -10 -4 -10 -8 -1 -19 6 -7 8 -22
5 -31 -5 -15 -3 -14 10 2 15 19 15 19 9 -8 -5 -18 -3 -27 5 -27 7 0 10 -7 6
-16 -3 -8 -2 -13 3 -10 5 3 12 -1 15 -10 4 -10 2 -13 -7 -9 -6 4 -4 0 6 -8 14
-11 15 -16 5 -20 -8 -3 -6 -6 6 -6 12 -1 16 -6 12 -17 -4 -10 -2 -13 6 -8 8 5
9 2 5 -9 -4 -11 2 -22 16 -32 12 -8 16 -15 9 -15 -7 0 -2 -17 13 -44 13 -24
21 -47 17 -51 -4 -3 0 -5 8 -3 10 2 16 -6 18 -27 2 -16 10 -35 19 -42 8 -6 12
-16 9 -21 -3 -5 4 -12 17 -16 16 -4 19 -8 9 -14 -10 -7 -9 -12 4 -23 15 -12
17 -12 9 0 -6 10 -4 12 4 6 7 -4 11 -16 8 -26 -3 -12 2 -24 14 -32 10 -8 16
-17 12 -20 -3 -4 -1 -7 6 -7 8 0 11 -6 7 -16 -3 -8 -2 -12 4 -9 6 3 11 1 11
-4 1 -6 2 -15 3 -20 0 -5 5 -13 10 -18 5 -4 6 -3 2 4 -3 6 -3 14 2 17 4 2 8
-3 9 -12 3 -34 23 -72 38 -72 8 0 15 -8 15 -17 0 -16 -2 -16 -11 -3 -9 13 -10
13 -6 0 2 -8 9 -15 16 -15 6 0 18 -11 25 -25 7 -14 19 -24 26 -22 11 3 11 0
-1 -14 -9 -12 -10 -15 -1 -10 7 4 15 1 18 -9 4 -9 12 -14 19 -12 6 3 12 -1 12
-9 0 -7 -5 -11 -11 -8 -6 3 -1 -3 11 -14 13 -11 23 -28 23 -37 0 -9 4 -13 10
-10 5 3 10 -1 10 -9 0 -9 5 -16 11 -16 5 0 7 -5 3 -12 -4 -7 -3 -8 5 -4 6 4
14 0 17 -8 3 -9 11 -13 18 -9 6 4 4 -2 -4 -12 -14 -17 -13 -18 7 -13 16 4 20
2 16 -8 -3 -8 0 -14 7 -14 6 0 8 -5 4 -12 -5 -7 -1 -9 12 -6 15 4 20 0 21 -14
2 -27 23 -50 40 -44 8 3 11 2 8 -3 -7 -12 40 -63 49 -54 4 4 4 0 0 -10 -5 -15
4 -22 27 -19 4 1 5 -9 2 -21 -4 -18 -3 -19 6 -7 9 13 11 12 11 -4 0 -12 5 -16
14 -13 11 4 13 1 9 -10 -4 -11 -2 -14 5 -9 7 4 12 2 12 -3 0 -6 7 -11 15 -11
8 0 17 -11 21 -25 4 -16 13 -25 26 -25 11 0 22 -8 25 -20 3 -11 9 -18 13 -15
4 3 11 -2 14 -11 3 -8 11 -12 17 -8 8 4 9 3 5 -4 -4 -7 -2 -12 4 -12 6 0 8 -4
5 -10 -3 -5 3 -10 14 -10 12 0 21 -7 21 -16 0 -8 5 -12 10 -9 5 3 10 -2 10
-11 0 -10 3 -15 6 -11 3 3 11 1 18 -4 48 -40 64 -58 58 -65 -4 -5 0 -3 9 4 14
10 18 10 23 -3 3 -9 10 -13 16 -10 5 3 10 -3 10 -15 0 -12 4 -19 9 -16 5 3 12
-2 15 -11 6 -15 8 -15 16 -3 8 13 10 12 10 -2 0 -10 6 -18 13 -18 6 0 23 -15
36 -33 13 -17 21 -24 18 -14 -4 9 -2 17 3 17 6 0 10 -6 10 -14 0 -8 5 -18 12
-22 7 -5 9 -2 4 7 -4 8 -2 7 6 -2 7 -9 24 -19 36 -23 13 -4 21 -13 19 -20 -3
-8 5 -11 24 -10 15 1 27 -1 26 -5 -1 -3 3 -8 8 -10 6 -2 16 -12 23 -22 7 -10
19 -16 27 -13 9 4 18 -1 21 -11 4 -9 13 -14 20 -11 7 3 16 0 20 -6 5 -7 2 -8
-6 -3 -9 5 -11 4 -6 -3 4 -7 13 -12 21 -12 7 0 16 -6 18 -12 4 -10 6 -9 6 1 1
9 8 6 21 -9 11 -13 20 -19 20 -14 0 5 5 2 10 -6 9 -13 10 -13 10 0 1 11 5 10
18 -6 10 -11 26 -20 36 -18 11 2 16 -2 12 -11 -3 -8 0 -17 6 -21 7 -4 8 -3 4
4 -4 7 -2 12 3 12 6 0 11 -6 11 -12 0 -9 4 -8 10 2 9 13 14 8 12 -12 -1 -3 5
-9 14 -12 9 -4 12 -2 8 5 -3 6 5 4 18 -5 14 -9 28 -13 31 -9 4 3 7 -1 7 -9 0
-12 6 -14 22 -10 16 4 19 2 13 -8 -6 -10 -4 -12 8 -7 11 4 14 2 11 -7 -4 -9 3
-13 20 -11 14 2 26 -1 26 -6 0 -5 10 -4 23 2 20 11 21 11 8 -4 -12 -15 -11
-17 5 -18 11 -1 25 -1 32 0 6 1 12 -3 12 -10 0 -8 5 -7 17 2 9 8 14 9 10 3 -8
-13 19 -27 34 -18 5 3 9 1 9 -5 0 -6 7 -8 15 -4 10 3 15 0 13 -8 -2 -9 5 -14
20 -13 12 0 22 -3 22 -7 0 -5 7 -5 17 -2 10 4 14 2 9 -5 -3 -6 -2 -13 4 -17 5
-3 10 -1 10 4 0 6 5 11 11 11 6 0 9 -6 6 -14 -5 -11 0 -13 24 -6 27 8 33 6 30
-12 0 -3 15 -5 34 -4 19 2 32 -1 29 -6 -3 -5 6 -7 20 -4 18 3 26 0 26 -10 0
-8 5 -14 11 -14 5 0 7 6 3 13 -6 8 -3 8 9 -2 9 -7 24 -11 32 -7 9 3 13 2 10
-4 -3 -6 -3 -10 2 -11 4 0 17 -2 28 -5 11 -2 30 -5 43 -6 12 -1 22 -6 22 -9 0
-4 14 -4 30 1 21 6 28 5 24 -2 -5 -7 0 -9 14 -6 12 3 21 3 20 -1 -2 -18 3 -24
11 -12 5 8 14 10 22 5 7 -4 31 -8 52 -9 21 -1 43 -8 49 -16 8 -11 9 -11 4 4
-6 20 9 24 17 3 3 -7 16 -13 29 -12 13 1 26 -3 30 -9 5 -6 8 -5 8 4 0 11 5 9
22 -5 12 -10 19 -14 15 -8 -4 7 6 11 28 11 22 0 32 -4 28 -11 -3 -6 -3 -8 2
-4 4 4 15 2 24 -5 14 -10 14 -10 3 4 -11 15 -10 17 13 15 14 0 25 -5 25 -9 0
-5 6 -5 13 0 14 9 66 12 65 3 -2 -19 4 -22 15 -7 9 13 16 14 27 6 13 -9 12
-10 -3 -5 -11 3 -16 2 -12 -4 8 -13 57 -9 67 5 5 6 8 6 8 -2 0 -13 18 -12 39
1 9 6 12 5 8 -1 -12 -18 175 -11 191 7 8 8 11 9 7 3 -8 -16 7 -17 23 -1 8 8
15 8 25 0 8 -7 17 -9 21 -5 11 12 36 12 36 0 0 -6 6 -3 13 8 11 14 16 15 22 5
5 -9 4 -11 -3 -6 -7 4 -12 2 -12 -3 0 -11 22 -10 53 4 10 4 23 2 32 -5 12 -10
16 -9 21 4 5 13 9 14 20 5 11 -9 14 -9 14 0 0 9 6 9 23 0 20 -11 21 -11 8 5
-12 14 -12 16 4 10 11 -5 16 -3 12 2 -3 6 22 10 65 9 38 0 72 4 75 8 3 5 17 7
33 5 15 -1 35 4 44 11 12 10 16 11 16 1 0 -10 3 -10 15 0 8 6 19 9 25 5 5 -3
10 -1 10 6 0 9 3 9 14 0 11 -9 16 -9 22 0 5 8 3 9 -6 4 -9 -5 -11 -4 -6 3 4 7
25 12 47 12 24 0 39 5 39 13 0 9 2 9 9 -1 7 -11 9 -11 14 1 3 9 14 14 24 13
10 -2 21 2 25 8 6 8 8 7 8 -1 0 -7 7 -10 15 -7 8 4 13 10 10 14 -9 14 10 20
25 8 12 -8 11 -8 -5 -3 -16 5 -17 4 -8 -6 10 -10 16 -9 30 2 10 8 30 15 45 14
20 -1 25 3 23 17 -3 15 -1 16 16 8 13 -8 19 -7 19 0 0 6 5 8 10 5 6 -3 10 0
10 7 0 9 3 9 10 -2 8 -13 10 -13 10 1 0 9 9 19 20 22 11 3 18 1 14 -4 -3 -5 2
-6 10 -3 9 3 16 14 17 23 0 12 2 12 9 -4 6 -15 9 -16 9 -4 1 15 11 19 54 20
10 0 21 7 24 15 3 8 9 14 15 14 5 0 6 -6 2 -12 -4 -7 3 -4 16 7 15 13 21 15
16 5 -4 -8 0 -6 9 5 9 11 22 19 29 17 7 -1 19 5 26 13 7 8 21 15 32 15 11 0
29 10 40 23 11 12 16 16 12 8 -5 -11 -3 -13 10 -8 10 4 20 7 22 7 3 0 2 5 -1
11 -4 6 0 9 11 7 11 -2 18 2 17 9 -2 7 4 10 12 7 9 -4 21 -1 29 5 7 6 17 7 21
3 5 -4 5 -1 1 6 -5 8 1 12 19 12 14 0 24 4 21 9 -3 5 1 11 9 15 8 3 15 0 15
-7 1 -7 8 2 16 18 8 17 12 22 9 13 -7 -27 4 -21 15 7 6 16 15 23 24 19 8 -3
16 2 19 13 4 17 5 17 6 0 0 -10 6 -15 11 -12 6 4 8 11 4 16 -3 5 -2 9 3 8 17
-3 53 14 47 22 -3 5 2 9 10 9 8 0 19 7 23 15 5 8 19 16 33 18 13 2 26 9 28 15
2 7 11 12 19 12 9 0 13 6 10 14 -4 10 -1 13 9 9 7 -3 14 0 14 7 0 6 5 8 10 5
6 -3 13 1 16 9 3 9 11 13 17 9 6 -4 8 0 4 10 -4 11 -2 14 9 10 7 -3 14 0 14 6
0 6 7 11 15 11 8 0 15 8 15 18 0 14 2 15 10 2 8 -13 10 -13 10 2 0 12 5 15 17
11 11 -4 14 -3 9 5 -4 7 -2 12 4 12 6 0 8 5 5 10 -4 6 -3 10 2 9 23 -4 43 2
40 14 -1 6 3 11 10 10 7 -2 17 6 23 17 6 11 15 18 21 15 8 -6 13 7 10 27 0 4
8 5 19 3 14 -3 17 1 13 12 -4 11 -3 14 6 9 8 -5 14 -1 18 13 3 12 10 21 15 21
5 0 6 -5 2 -12 -4 -7 -3 -8 5 -4 6 4 9 12 5 17 -3 6 3 13 15 16 11 3 18 9 15
14 -3 5 2 9 11 9 9 0 13 4 10 10 -3 5 1 10 10 10 9 0 13 5 10 10 -3 6 1 10 10
10 10 0 13 5 9 12 -5 8 -2 9 10 5 11 -5 15 -3 10 5 -5 7 -2 9 8 5 10 -3 15 0
14 11 0 9 5 16 12 15 6 -2 13 2 13 7 1 6 2 15 3 22 0 6 7 13 15 16 9 3 11 0 6
-9 -5 -8 -4 -11 1 -6 5 5 10 13 10 18 1 5 2 13 3 19 0 5 7 9 14 7 6 -1 11 3
10 10 -2 7 6 17 17 23 12 6 17 16 14 22 -5 8 -1 9 10 5 10 -4 15 -3 11 3 -3 6
-1 10 5 10 6 0 8 5 5 10 -6 9 7 14 27 11 4 0 4 7 1 16 -4 11 -3 14 5 9 7 -4
12 -1 12 6 0 17 36 49 46 40 3 -4 1 3 -5 15 -10 19 -9 22 4 17 10 -4 15 0 15
10 0 9 6 16 14 16 9 0 13 7 11 19 -2 12 2 18 13 17 11 -1 16 5 14 18 -3 13 1
17 12 13 9 -4 15 -3 15 1 -4 27 3 44 16 38 8 -3 14 -2 13 2 -4 15 14 52 23 47
5 -4 9 4 9 15 0 16 4 20 16 16 8 -3 12 -2 9 4 -3 6 -1 10 6 10 7 0 9 3 6 7 -4
3 0 17 8 30 9 13 13 23 10 23 -3 0 3 10 14 22 11 11 18 26 14 31 -3 6 -2 8 3
5 5 -3 15 0 22 8 8 9 9 14 2 14 -6 0 -8 5 -5 10 4 6 11 8 16 5 8 -5 10 3 9 30
0 3 11 16 25 29 18 17 22 26 13 29 -9 4 -7 6 4 6 9 1 20 6 24 13 4 6 3 8 -4 5
-6 -5 -8 0 -5 13 3 11 11 20 19 20 8 0 11 9 8 26 -3 14 -1 23 3 21 13 -8 28
16 27 41 -1 13 7 28 16 35 10 6 16 16 13 23 -2 6 1 15 8 20 8 5 10 3 4 -6 -5
-9 -4 -11 4 -6 9 6 9 11 -1 24 -10 12 -10 14 0 8 7 -4 12 -1 12 9 0 10 5 13
13 9 7 -5 6 0 -3 11 -13 17 -13 18 1 13 12 -5 15 -1 13 18 -1 13 1 22 4 20 9
-5 32 20 25 28 -3 3 0 13 8 23 8 9 9 14 4 11 -6 -4 -11 2 -11 12 0 14 4 16 13
9 9 -8 11 -6 8 10 -2 12 0 21 5 21 4 0 6 9 3 20 -3 11 0 20 6 20 6 0 10 6 8
13 -1 6 4 11 11 9 9 -1 11 2 6 10 -5 7 -9 21 -9 30 -1 15 1 15 14 5 12 -10 14
-9 8 5 -3 10 -2 18 4 18 5 0 7 11 5 25 -3 13 0 28 6 31 7 5 8 2 3 -6 -5 -9 -4
-11 4 -6 9 6 9 11 -1 24 -10 12 -10 14 0 8 11 -6 15 4 11 30 0 4 5 11 13 15
10 7 10 9 -2 9 -10 0 -7 5 7 15 19 13 21 20 13 41 -13 33 -13 37 3 31 7 -3 14
3 15 12 1 9 3 31 5 48 2 18 6 36 10 39 12 12 8 26 -5 18 -10 -6 -10 -5 -1 8 7
8 9 19 5 24 -4 4 0 3 8 -3 13 -10 15 -3 15 47 -1 51 1 57 14 47 12 -10 13 -9
3 9 -8 16 -8 24 1 34 10 10 9 11 -3 6 -8 -4 -6 0 4 8 13 10 15 16 7 16 -10 0
-11 3 -2 14 9 10 9 16 1 21 -8 5 -4 15 12 32 13 14 17 23 9 21 -9 -2 -14 7
-15 23 -1 15 3 25 9 23 6 -3 11 6 12 18 2 18 0 20 -7 8 -7 -11 -10 -11 -10 -2
0 7 7 15 16 19 13 5 13 7 2 14 -9 6 -9 9 -1 9 8 0 9 9 3 29 -7 25 -6 29 7 24
13 -5 13 -2 4 15 -14 27 -14 35 2 26 7 -5 6 0 -3 11 -9 11 -10 16 -2 11 6 -4
12 -2 12 3 0 6 -4 11 -10 11 -5 0 -10 5 -10 11 0 5 4 8 8 5 4 -2 8 4 8 15 0
10 -3 19 -6 19 -4 0 -7 7 -7 15 0 9 4 11 11 6 8 -7 11 16 11 74 1 50 -3 81 -9
78 -5 -4 -6 -1 0 8 11 17 12 249 1 242 -4 -2 -5 -8 -2 -13 3 -5 1 -11 -4 -15
-11 -6 -8 16 8 60 10 28 10 29 -4 10 -15 -19 -15 -19 -11 5 2 14 10 24 17 22
11 -2 10 1 -1 10 -18 15 -23 109 -6 120 7 5 4 8 -8 8 -15 0 -16 3 -6 15 7 8 8
15 3 15 -5 0 -9 10 -8 23 1 12 -2 25 -7 28 -5 3 -11 18 -14 34 -5 26 -4 27 13
14 10 -7 7 0 -7 15 -14 16 -20 26 -13 22 8 -4 11 2 8 21 -2 16 -4 29 -6 31 -1
1 -3 7 -4 12 -1 6 -4 13 -5 18 -1 4 -1 15 0 26 1 10 -2 16 -8 13 -5 -4 -9 0
-9 8 0 8 5 11 11 8 6 -3 5 0 -1 8 -7 7 -13 30 -13 50 0 21 -4 39 -9 41 -6 2
-11 25 -12 51 -2 35 -8 51 -22 58 -14 8 -16 13 -6 25 9 11 9 14 -2 14 -10 0
-10 3 -2 11 9 9 7 16 -6 28 -9 9 -11 12 -4 7 10 -6 12 -4 7 8 -3 9 -10 16 -15
16 -5 0 -9 7 -9 16 0 9 5 13 13 9 6 -4 5 -1 -4 7 -9 7 -14 18 -12 25 2 6 -1
14 -6 18 -6 3 -11 15 -11 26 0 10 -6 19 -12 20 -7 0 -4 4 7 9 11 5 14 9 7 9
-19 1 -48 31 -30 31 10 0 11 2 0 8 -8 5 -10 16 -6 27 6 14 4 17 -8 13 -8 -3
-15 -1 -16 5 0 7 -2 27 -3 45 -2 25 -6 32 -17 27 -12 -4 -12 -3 -3 9 9 11 9
15 -1 19 -9 4 -9 6 -1 6 7 1 1 12 -12 26 -22 21 -31 49 -26 78 1 5 -3 6 -9 2
-6 -3 -10 3 -10 15 0 25 -24 52 -36 42 -5 -4 -2 1 5 11 7 9 10 17 5 17 -5 0
-18 12 -28 27 -11 14 -14 23 -7 18 10 -6 11 -3 2 14 -7 11 -17 21 -24 21 -7 0
-6 4 3 10 12 8 12 10 1 10 -8 0 -11 3 -8 7 4 3 0 15 -10 25 -9 10 -12 18 -8
18 4 0 -1 8 -11 18 -10 9 -20 24 -22 32 -2 8 -8 20 -14 25 -8 7 -8 6 -3 -4 6
-10 4 -12 -4 -7 -7 5 -10 15 -7 23 4 9 -2 23 -12 32 -11 9 -18 24 -16 34 2 15
0 16 -12 6 -12 -9 -14 -6 -14 20 0 17 -5 31 -11 31 -5 0 -7 -5 -3 -12 4 -7 3
-8 -5 -4 -6 4 -9 12 -6 17 3 5 -3 19 -15 31 -11 12 -18 28 -16 35 3 7 -12 27
-32 44 -20 17 -31 28 -23 24 10 -6 12 -4 7 4 -5 7 -15 10 -24 6 -9 -3 -13 -3
-9 1 4 4 -1 17 -10 28 -18 21 -18 21 5 2 12 -11 22 -15 22 -9 0 5 -11 16 -25
23 -14 7 -23 15 -20 18 8 8 -36 63 -46 57 -8 -6 -14 16 -10 38 1 5 -2 6 -6 4
-8 -5 -31 15 -36 30 -1 5 -5 7 -9 5 -5 -1 -8 5 -8 14 0 8 -4 12 -10 9 -9 -6
-14 8 -11 28 0 4 -6 7 -16 7 -9 0 -14 3 -10 6 7 8 -17 34 -32 34 -6 0 -11 4
-11 10 0 5 -11 20 -25 34 -14 14 -25 30 -25 36 0 9 -14 14 -33 11 -5 -1 -7 4
-5 11 3 7 -7 23 -21 36 -14 14 -25 28 -23 33 1 5 -1 8 -5 8 -19 -3 -46 2 -40
7 7 7 -31 47 -62 63 -12 7 -19 16 -16 22 4 5 1 10 -4 10 -6 1 -15 2 -21 3 -5
0 -10 5 -9 9 0 10 -41 47 -53 47 -5 0 -6 5 -3 10 3 6 -1 10 -9 10 -9 0 -16 7
-16 16 0 8 -4 13 -8 10 -5 -3 -14 4 -22 14 -8 10 -17 17 -22 14 -4 -3 -8 0 -8
6 0 6 -4 8 -10 5 -5 -3 -10 -1 -10 5 0 6 -4 8 -10 5 -5 -3 -10 -1 -10 5 0 6
-5 8 -12 4 -7 -5 -9 0 -6 14 4 13 2 19 -6 16 -11 -4 -49 22 -92 64 -13 12 -27
23 -31 25 -5 1 -7 5 -6 9 2 4 -5 4 -14 1 -9 -4 -14 -2 -10 3 5 9 -6 12 -50 16
-6 1 -9 8 -6 15 4 9 0 13 -8 12 -8 -2 -30 7 -49 20 -19 13 -27 20 -17 17 11
-3 16 -2 12 4 -3 6 -19 10 -34 10 -29 0 -56 21 -44 34 4 4 0 4 -9 1 -9 -4 -19
-1 -24 6 -5 8 -3 10 6 4 9 -5 11 -4 6 4 -4 6 -12 8 -18 5 -6 -4 -17 1 -24 11
-7 10 -20 15 -29 12 -8 -4 -15 -2 -15 4 0 6 -4 8 -9 5 -5 -3 -11 1 -15 9 -3 8
-15 15 -26 15 -14 0 -19 4 -14 13 5 8 2 7 -9 -2 -15 -12 -17 -12 -11 3 5 12 2
15 -10 10 -10 -4 -23 1 -34 13 -9 10 -25 19 -34 20 -35 1 -39 3 -32 15 5 8 2
9 -9 5 -10 -3 -17 -2 -17 4 0 6 -6 9 -12 7 -7 -3 -21 4 -32 14 -15 14 -22 15
-28 6 -6 -10 -8 -10 -8 0 0 6 -10 12 -22 12 -19 0 -20 2 -8 11 12 9 11 10 -7
6 -13 -3 -25 -1 -28 4 -3 4 -13 5 -22 2 -11 -4 -14 -3 -9 5 7 12 -8 16 -49 13
-17 -2 -17 0 -5 8 12 9 10 11 -10 12 -14 1 -28 1 -32 0 -5 0 -8 4 -8 10 0 5
-4 7 -10 4 -5 -3 -10 -1 -10 4 0 6 -5 11 -11 11 -5 0 -7 -6 -3 -12 4 -7 -4 -3
-17 8 -19 17 -29 20 -48 13 -19 -7 -22 -6 -17 6 3 8 2 14 -2 14 -30 -5 -62 3
-56 13 5 7 3 8 -7 2 -21 -13 -40 -14 -32 -1 4 6 0 8 -10 4 -9 -3 -23 0 -31 8
-17 18 -30 20 -20 4 3 -6 -6 -3 -22 7 -17 12 -25 14 -20 6 7 -11 4 -12 -11 -3
-11 6 -23 7 -27 4 -3 -3 -6 2 -6 13 0 16 -2 17 -10 4 -5 -8 -10 -10 -10 -3 0
6 -9 9 -22 5 -16 -4 -19 -2 -13 9 8 12 6 12 -8 0 -12 -9 -17 -10 -17 -2 0 7
-5 9 -12 4 -19 -11 -39 -13 -32 -2 3 5 10 6 16 3 6 -4 9 -3 5 2 -3 5 -28 9
-56 9 -28 0 -51 4 -51 9 0 5 -7 3 -15 -4 -9 -7 -15 -8 -15 -2 0 5 -7 13 -16
16 -8 3 -12 2 -9 -4 3 -6 2 -10 -3 -10 -6 0 -13 7 -16 15 -4 13 -10 14 -26 5
-11 -6 -20 -7 -20 -2 0 9 -5 9 -134 12 -51 1 -74 5 -65 11 8 5 9 9 3 9 -6 0
-14 -3 -18 -7 -11 -12 -47 -10 -43 2 3 6 -5 11 -18 11 -13 0 -22 -3 -19 -7 2
-4 -3 -9 -11 -12 -9 -4 -12 -1 -8 9 3 7 0 14 -6 14 -6 0 -11 -6 -11 -12 0 -10
-2 -10 -9 0 -11 18 -235 16 -228 -3 3 -6 -1 -12 -9 -12 -8 0 -13 5 -11 12 3 6
-6 11 -23 10 -16 0 -26 -4 -23 -8z m113 -3 c0 -8 -19 -13 -24 -6 -3 5 1 9 9 9
8 0 15 -2 15 -3z m2844 -1359 c3 -8 1 -15 -4 -15 -6 0 -10 7 -10 15 0 8 2 15
4 15 2 0 6 -7 10 -15z m117 -152 c13 -16 12 -17 -3 -4 -10 7 -18 15 -18 17 0
8 8 3 21 -13z m-6126 -743 c-3 -5 -12 -10 -18 -10 -7 0 -6 4 3 10 19 12 23 12
15 0z m6625 -344 c0 -3 -4 -8 -10 -11 -5 -3 -10 -1 -10 4 0 6 5 11 10 11 6 0
10 -2 10 -4z m-6854 -735 c0 -22 -3 -37 -6 -35 -7 8 -7 74 0 74 4 0 7 -18 6
-39z m1 -301 c1 -11 -2 -20 -7 -20 -6 0 -7 17 -1 38 3 8 7 -1 8 -18z m6846
-745 c-3 -9 -8 -14 -10 -11 -3 3 -2 9 2 15 9 16 15 13 8 -4z m-13 -91 c0 -8
-19 -13 -24 -6 -3 5 1 9 9 9 8 0 15 -2 15 -3z m-4130 -2409 c0 -2 -9 -3 -19
-2 -11 0 -18 5 -15 9 4 6 34 0 34 -7z"/>
<path d="M6625 1950 c-3 -5 -1 -10 4 -10 6 0 11 5 11 10 0 6 -2 10 -4 10 -3 0
-8 -4 -11 -10z"/>
<path d="M1135 920 c3 -5 8 -10 11 -10 2 0 4 5 4 10 0 6 -5 10 -11 10 -5 0 -7
-4 -4 -10z"/>
<path d="M3996 42 c-3 -5 1 -9 9 -9 8 0 12 4 9 9 -3 4 -7 8 -9 8 -2 0 -6 -4
-9 -8z"/>
<path d="M3695 10 c3 -5 8 -10 11 -10 2 0 4 5 4 10 0 6 -5 10 -11 10 -5 0 -7
-4 -4 -10z"/>
</g>
</svg>
